custom-analysis
version=1
nRows=6
nColumns=98
inDegrees=no

This file contains tibia displacement and acting force.

Units are S.I. units (seconds, meters, Newtons, ...)
Angles are in degrees.

endheader
time	APT	SIT	knee_angle	aACL_R_force	pACL_R_force	aPCL_R_force	pPCL_R_force	aMCL_R_force	mMCL_R_force	pMCL_R_force	aLCL_R_force	mLCL_R_force	pLCL_R_force	aPCL_L_force	pPCL_L_force	aMCL_L_force	aLCL_L_force	aACL_R_length	pACL_R_length	aPCL_R_length	pPCL_R_length	aMCL_R_length	mMCL_R_length	pMCL_R_length	aLCL_R_length	mLCL_R_length	pLCL_R_length	aPCL_L_length	pPCL_L_length	aMCL_L_length	aLCL_L_length	aACL_R_strain	pACL_R_strain	aPCL_R_strain	pPCL_R_strain	aMCL_R_strain	mMCL_R_strain	pMCL_R_strain	aLCL_R_strain	mLCL_R_strain	pLCL_R_strain	aPCL_L_strain	pPCL_L_strain	aMCL_L_strain	aLCL_L_strain	femur_lat_meniscii_r.femur_lat_r.force.X	femur_lat_meniscii_r.femur_lat_r.force.Y	femur_lat_meniscii_r.femur_lat_r.force.Z	femur_lat_meniscii_r.femur_lat_r.torque.X	femur_lat_meniscii_r.femur_lat_r.torque.Y	femur_lat_meniscii_r.femur_lat_r.torque.Z	femur_lat_meniscii_r.meniscus_lat_r.force.X	femur_lat_meniscii_r.meniscus_lat_r.force.Y	femur_lat_meniscii_r.meniscus_lat_r.force.Z	femur_lat_meniscii_r.meniscus_lat_r.torque.X	femur_lat_meniscii_r.meniscus_lat_r.torque.Y	femur_lat_meniscii_r.meniscus_lat_r.torque.Z	femur_med_meniscii_r.femur_med_r.force.X	femur_med_meniscii_r.femur_med_r.force.Y	femur_med_meniscii_r.femur_med_r.force.Z	femur_med_meniscii_r.femur_med_r.torque.X	femur_med_meniscii_r.femur_med_r.torque.Y	femur_med_meniscii_r.femur_med_r.torque.Z	femur_med_meniscii_r.meniscus_med_r.force.X	femur_med_meniscii_r.meniscus_med_r.force.Y	femur_med_meniscii_r.meniscus_med_r.force.Z	femur_med_meniscii_r.meniscus_med_r.torque.X	femur_med_meniscii_r.meniscus_med_r.torque.Y	femur_med_meniscii_r.meniscus_med_r.torque.Z	femur_med_tibia_r.tibia_upper_r.force.X	femur_med_tibia_r.tibia_upper_r.force.Y	femur_med_tibia_r.tibia_upper_r.force.Z	femur_med_tibia_r.tibia_upper_r.torque.X	femur_med_tibia_r.tibia_upper_r.torque.Y	femur_med_tibia_r.tibia_upper_r.torque.Z	femur_med_tibia_r.femur_med_r.force.X	femur_med_tibia_r.femur_med_r.force.Y	femur_med_tibia_r.femur_med_r.force.Z	femur_med_tibia_r.femur_med_r.torque.X	femur_med_tibia_r.femur_med_r.torque.Y	femur_med_tibia_r.femur_med_r.torque.Z	femur_lat_tibia_r.tibia_upper_r.force.X	femur_lat_tibia_r.tibia_upper_r.force.Y	femur_lat_tibia_r.tibia_upper_r.force.Z	femur_lat_tibia_r.tibia_upper_r.torque.X	femur_lat_tibia_r.tibia_upper_r.torque.Y	femur_lat_tibia_r.tibia_upper_r.torque.Z	femur_lat_tibia_r.femur_lat_r.force.X	femur_lat_tibia_r.femur_lat_r.force.Y	femur_lat_tibia_r.femur_lat_r.force.Z	femur_lat_tibia_r.femur_lat_r.torque.X	femur_lat_tibia_r.femur_lat_r.torque.Y	femur_lat_tibia_r.femur_lat_r.torque.Z	femur_lat_meniscii_force_r	femur_med_meniscii_force_r	femur_lat_tibia_force_r	femur_med_tibia_force_r
      0.17515103	      0.01449469	      0.01837604	     59.45137792	      3.21777954	      0.00000000	    474.24368970	    273.02207985	      0.00000000	      0.00000000	      0.00000000	      0.00000000	      0.00000000	      0.00000000	      0.00000000	      0.00000000	      0.00000001	      0.00000000	      0.03210814	      0.02461406	      0.03433810	      0.03172488	      0.05955486	      0.05900551	      0.05596765	      0.05212836	      0.04729838	      0.04223984	      0.01525851	      0.01651186	      0.06550154	      0.04489616	      0.03556282	     -0.01774402	      0.10428573	      0.06146572	     -0.00786547	     -0.01317855	     -0.04700225	     -0.06875726	     -0.16016408	     -0.19301380	      0.00000079	     -0.32847694	      0.00000060	     -0.00000086	     88.80316164	    237.31204032	     21.70060206	    -14.35453650	      2.12944146	     34.03353546	    -88.80316164	   -237.31204032	    -21.70060206	      6.32396193	     -2.76043614	      5.72955701	     92.71709672	     44.51741313	     -3.75466745	      2.46239779	     -2.08186140	     37.10142304	    -92.71709672	    -44.51741313	      3.75466745	     -0.93157461	      2.01250028	     -0.12192876	   -508.89550130	   -674.74973896	    165.84308223	    -14.71126616	     13.45054659	      8.59765817	    508.89550130	    674.74973896	   -165.84308223	     80.19397961	    -10.58996414	    203.97699415	      0.00000000	      0.00000000	      0.00000000	      0.00000000	      0.00000000	      0.00000000	      0.00000000	      0.00000000	      0.00000000	      0.00000000	      0.00000000	      0.00000000	    254.31068033	    102.91918005	      0.00000000	    861.25824780
      0.17539980	      0.01450611	      0.01841975	     59.57801679	      3.25480016	      0.00000000	    477.33876859	    274.65065935	      0.00000000	      0.00000000	      0.00000000	      0.00000000	      0.00000000	      0.00000000	      0.00000000	      0.00000000	      0.00000001	      0.00000000	      0.03210419	      0.02461216	      0.03435570	      0.03173511	      0.05956676	      0.05900704	      0.05596265	      0.05212521	      0.04728949	      0.04222842	      0.01525851	      0.01651186	      0.06550154	      0.04489616	      0.03543534	     -0.01781980	      0.10485176	      0.06180805	     -0.00766723	     -0.01315294	     -0.04708746	     -0.06881351	     -0.16032205	     -0.19323198	      0.00000079	     -0.32847694	      0.00000060	     -0.00000086	     89.25569964	    235.80237057	     21.53862034	    -14.25330449	      2.13851453	     34.22768274	    -89.25569964	   -235.80237057	    -21.53862034	      6.28330649	     -2.76780069	      5.68921545	     92.30069998	     44.03570416	     -3.68714183	      2.42712795	     -2.07652144	     36.93541821	    -92.30069998	    -44.03570416	      3.68714183	     -0.92298452	      2.00608216	     -0.12326021	   -511.59720909	   -675.31801228	    166.31453942	    -14.72102190	     13.52144978	      8.63038224	    511.59720909	    675.31801228	   -166.31453942	     80.39672028	    -10.65096452	    205.04903820	      0.00000000	      0.00000000	      0.00000000	      0.00000000	      0.00000000	      0.00000000	      0.00000000	      0.00000000	      0.00000000	      0.00000000	      0.00000000	      0.00000000	    253.04792047	    102.33355985	      0.00000000	    863.39252260
      0.17563490	      0.01451682	      0.01846104	     59.69771158	      3.27390475	      0.00000000	    480.22514022	    276.10109438	      0.00000000	      0.00000000	      0.00000000	      0.00000000	      0.00000000	      0.00000000	      0.00000000	      0.00000000	      0.00000001	      0.00000000	      0.03210051	      0.02461044	      0.03437231	      0.03174478	      0.05957804	      0.05900854	      0.05595801	      0.05212220	      0.04728107	      0.04221765	      0.01525851	      0.01651186	      0.06550154	      0.04489616	      0.03531666	     -0.01788841	      0.10538597	      0.06213164	     -0.00747930	     -0.01312778	     -0.04716650	     -0.06886725	     -0.16047149	     -0.19343775	      0.00000079	     -0.32847694	      0.00000060	     -0.00000086	     88.89774080	    235.14677752	     21.43501347	    -14.19749514	      2.12629018	     34.07545989	    -88.89774080	   -235.14677752	    -21.43501347	      6.26682766	     -2.75376049	      5.69899815	     92.17837119	     43.58810371	     -3.77147755	      2.45289291	     -2.07253955	     36.88602832	    -92.17837119	    -43.58810371	      3.77147755	     -0.91644430	      2.00394188	     -0.12661880	   -514.38330596	   -675.40498446	    166.78666524	    -14.72428448	     13.59304424	      8.64120435	    514.38330596	    675.40498446	   -166.78666524	     80.59202243	    -10.71301999	    206.16282379	      0.00000000	      0.00000000	      0.00000000	      0.00000000	      0.00000000	      0.00000000	      0.00000000	      0.00000000	      0.00000000	      0.00000000	      0.00000000	      0.00000000	    252.30195223	    102.03430278	      0.00000000	    865.20510296
      0.17588221	      0.01452802	      0.01850450	     59.82363344	      3.27318664	      0.00000000	    483.22095656	    277.54322541	      0.00000000	      0.00000000	      0.00000000	      0.00000000	      0.00000000	      0.00000000	      0.00000000	      0.00000000	      0.00000001	      0.00000000	      0.03209669	      0.02460870	      0.03438974	      0.03175493	      0.05958992	      0.05901017	      0.05595319	      0.05211898	      0.04727219	      0.04220632	      0.01525851	      0.01651186	      0.06550154	      0.04489616	      0.03519331	     -0.01795801	      0.10594643	      0.06247137	     -0.00728138	     -0.01310066	     -0.04724843	     -0.06892480	     -0.16062924	     -0.19365418	      0.00000079	     -0.32847694	      0.00000060	     -0.00000086	     88.72635441	    234.38736889	     21.26040802	    -14.11051955	      2.11769295	     34.00034365	    -88.72635441	   -234.38736889	    -21.26040802	      6.24659532	     -2.74211543	      5.70228439	     91.51519905	     43.27736477	     -3.84084593	      2.47203475	     -2.05492399	     36.61453425	    -91.51519905	    -43.27736477	      3.84084593	     -0.90884296	      1.98872197	     -0.11456505	   -517.26177652	   -675.42953093	    167.11667414	    -14.72262393	     13.66249799	      8.65218417	    517.26177652	    675.42953093	   -167.11667414	     80.72765867	    -10.77611411	    207.31328204	      0.00000000	      0.00000000	      0.00000000	      0.00000000	      0.00000000	      0.00000000	      0.00000000	      0.00000000	      0.00000000	      0.00000000	      0.00000000	      0.00000000	    251.51900447	    101.30505445	      0.00000000	    867.00217963
      0.17611672	      0.01453858	      0.01854573	     59.94305111	      3.25637846	      0.00000000	    486.01710757	    278.82073304	      0.00000000	      0.00000000	      0.00000000	      0.00000000	      0.00000000	      0.00000000	      0.00000000	      0.00000000	      0.00000001	      0.00000000	      0.03209309	      0.02460709	      0.03440619	      0.03176452	      0.05960118	      0.05901172	      0.05594868	      0.05211585	      0.04726371	      0.04219555	      0.01525851	      0.01651186	      0.06550154	      0.04489616	      0.03507748	     -0.01802200	      0.10647568	      0.06279208	     -0.00709383	     -0.01307469	     -0.04732534	     -0.06898074	     -0.16077975	     -0.19385985	      0.00000079	     -0.32847694	      0.00000060	     -0.00000086	     90.15841705	    232.52516311	     20.55030111	    -13.76599317	      2.15209070	     34.60438286	    -90.15841705	   -232.52516311	    -20.55030111	      6.17489533	     -2.76404534	      5.62355404	     91.44931709	     43.02459769	     -3.97937194	      2.52362205	     -2.05452373	     36.58671630	    -91.44931709	    -43.02459769	      3.97937194	     -0.90675065	      1.99129326	     -0.11329223	   -519.76138214	   -675.69247217	    167.27579724	    -14.72008421	     13.71921654	      8.67618857	    519.76138214	    675.69247217	   -167.27579724	     80.79606440	    -10.82990359	    208.30696382	      0.00000000	      0.00000000	      0.00000000	      0.00000000	      0.00000000	      0.00000000	      0.00000000	      0.00000000	      0.00000000	      0.00000000	      0.00000000	      0.00000000	    250.23750023	    101.14311150	      0.00000000	    868.73091556
      0.17636517	      0.01454969	      0.01858947	     60.06957795	      3.19220327	      0.00000000	    488.98473107	    280.21949155	      0.00000000	      0.00000000	      0.00000000	      0.00000000	      0.00000000	      0.00000000	      0.00000000	      0.00000000	      0.00000001	      0.00000000	      0.03208930	      0.02460542	      0.03442355	      0.03177463	      0.05961308	      0.05901337	      0.05594393	      0.05211244	      0.04725466	      0.04218411	      0.01525851	      0.01651186	      0.06550154	      0.04489616	      0.03495507	     -0.01808866	      0.10703402	      0.06313032	     -0.00689550	     -0.01304714	     -0.04740619	     -0.06904168	     -0.16094042	     -0.19407842	      0.00000079	     -0.32847694	      0.00000060	     -0.00000086	     91.37715958	    232.04617896	     20.99219413	    -13.94126343	      2.18792856	     35.10897132	    -91.37715958	   -232.04617896	    -20.99219413	      6.17803191	     -2.81300053	      5.59318698	     92.48420102	     43.05335841	     -4.05716594	      2.55552734	     -2.07548507	     37.00161379	    -92.48420102	    -43.05335841	      4.05716594	     -0.90805895	      2.01201002	     -0.12070087	   -522.69203509	   -675.81858370	    167.53621655	    -14.71983050	     13.78369898	      8.68922673	    522.69203509	    675.81858370	   -167.53621655	     80.90643854	    -10.88972918	    209.47859500	      0.00000000	      0.00000000	      0.00000000	      0.00000000	      0.00000000	      0.00000000	      0.00000000	      0.00000000	      0.00000000	      0.00000000	      0.00000000	      0.00000000	    250.27162580	    102.09495435	      0.00000000	    870.63546073
